<svg xmlns="http://www.w3.org/2000/svg" viewBox="0 0 79.63 79.63"><title>help_icon_white</title><path d="M58.39,17.27H22.87a3.57,3.57,0,0,1,0-7.14H58.39a6,6,0,0,1,5.91,5.32A28,28,0,0,0,64,10.13a6,6,0,0,0-5.63-4.06H21.23A6,6,0,0,0,15.29,12V67.61a6,6,0,0,0,5.94,5.94H58.39a6,6,0,0,0,6-5.94V23.21A6,6,0,0,0,58.39,17.27ZM52.84,43.52,35.33,53.64a2.72,2.72,0,0,1-4.1-2.37V31.05a2.72,2.72,0,0,1,4.1-2.37L52.84,38.79A2.72,2.72,0,0,1,52.84,43.52Z" style="fill:#fff"/><rect x="0.13" y="0.13" width="79.38" height="79.38" style="fill:none;stroke:#fff;stroke-miterlimit:10;stroke-width:0.25px;opacity:0.01"/></svg>