<svg xmlns="http://www.w3.org/2000/svg" viewBox="0 0 361 361"><defs><style>.cls-1{fill:none;stroke:#fff;stroke-miterlimit:10;opacity:0.01;}.cls-2{fill:red;}</style></defs><title>Rocket Note Red - Max Space</title><g id="Layer_2" data-name="Layer 2"><g id="Layer_1-2" data-name="Layer 1"><rect class="cls-1" x="0.5" y="0.5" width="360" height="360" rx="72" ry="72"/><path class="cls-2" d="M280,258.28,266.93,246.6c9.33-62-.77-144.2-71.51-234.59A18.72,18.72,0,0,0,169.2,8.39a18.19,18.19,0,0,0-3.57,3.55C95,102.38,84.9,184.64,94.12,246.52l-13,11.71a44.87,44.87,0,0,0-15,33.2V330a2.86,2.86,0,0,0,2.57,3,2.93,2.93,0,0,0,1.46-.3l39.42-16.29a4.47,4.47,0,0,1,5.81,2.33,247.13,247.13,0,0,0,16.91,31.18l1,1.64a10.49,10.49,0,0,0,8.83,4.83l76.67,0a10.48,10.48,0,0,0,8.79-4.79l1.07-1.65a251.19,251.19,0,0,0,16.9-31.2,4.47,4.47,0,0,1,5.8-2.33l39.45,16.31a2.79,2.79,0,0,0,3.66-1.5,2.53,2.53,0,0,0,.2-1.13l0-38.5A45.1,45.1,0,0,0,280,258.28ZM220.82,189l-55.73,32.19A8.71,8.71,0,0,1,152,213.66V149.31a8.71,8.71,0,0,1,13.06-7.55l55.73,32.18A8.7,8.7,0,0,1,220.82,189Z"/></g></g></svg>