<svg xmlns="http://www.w3.org/2000/svg" viewBox="0 0 928.82 144"><defs><style>.cls-1{fill:red;}</style></defs><title>Rocket Note Main</title><g id="Layer_2" data-name="Layer 2"><g id="Layer_1-2" data-name="Layer 1"><path d="M0,19H46c22,0,41.28.59,41.28,31.81,0,20.71-8.58,28.4-20.71,31.22L94.24,125H67.61l-26-41.72H21.9V125H0Zm21.9,18.2v28H41.57c17.61,0,23.52-1.77,23.52-15.09,0-10.65-3.69-12.87-22.19-12.87Z"/><path d="M136.24,127c-20.12,0-39.79-7.84-39.79-41,0-28.11,14.2-41,39.94-41s40.1,12.87,40.1,41C176.49,114.53,161.69,127,136.24,127Zm.15-65.09c-13.76,0-18.79,6.21-18.79,24.11s5,24.12,18.94,24.12c13.61,0,18.79-5.92,18.79-24.27C155.33,68.38,150.59,61.87,136.39,61.87Z"/><path d="M259.18,73.41H238.76c-1.63-7.55-4.14-11.4-14.65-11.4-11.09,0-15.83,4-15.83,24.12s4.74,24,14.8,24c11.24,0,15.09-4.89,15.68-12.73h20.56C257.7,114.83,249.86,127,224.11,127c-30.92,0-37-17.46-37-40.09,0-24.86,7.4-41.72,38-41.72,22.49,0,32.1,9.17,34.17,28.26Z"/><path d="M274,19h20.57v57l25.3-28.85h25.29L317.9,76.66,346.16,125H322.34L303.4,91.16l-8.87,9.17V125H274Z"/><path d="M422.79,102.7C420.27,120.6,408.44,127,387.28,127,363.17,127,350,118.68,350,85.24c0-22.34,5.92-40.09,38.17-40.09,27.37,0,35.51,12.72,35.51,46.6H371.16c.74,14.79,4.43,18.35,16,18.35,7.84,0,12.58-1.48,14.65-7.4Zm-19.68-24c-.89-14.2-6.51-16.72-16-16.72-12,0-15.09,4.15-15.83,16.72Z"/><path d="M474.11,63.64H460.8V97.08c0,11,0,13,8.28,13a36,36,0,0,0,5-.3V125a101.37,101.37,0,0,1-14.64,1.18c-19.23,0-19.23-7.84-19.23-28.85V63.64H430V47.07h10.21V27.84H460.8V47.07h13.31Z"/><path d="M615.51,19h22.34l41.27,70V19H701V125h-21.9L637.41,54.62V125h-21.9Z"/><path d="M756.63,127c-20.12,0-39.79-7.84-39.79-41,0-28.11,14.2-41,39.94-41s40.09,12.87,40.09,41C796.87,114.53,782.08,127,756.63,127Zm.15-65.09C743,61.87,738,68.08,738,86s5,24.12,18.94,24.12c13.61,0,18.79-5.92,18.79-24.27C775.72,68.38,771,61.87,756.78,61.87Z"/><path d="M847.76,63.64H834.44V97.08c0,11,0,13,8.29,13a36.18,36.18,0,0,0,5-.3V125a101.42,101.42,0,0,1-14.65,1.18c-19.23,0-19.23-7.84-19.23-28.85V63.64H803.67V47.07h10.21V27.84h20.56V47.07h13.32Z"/><path d="M927.94,102.7C925.42,120.6,913.59,127,892.43,127c-24.12,0-37.28-8.28-37.28-41.72,0-22.34,5.92-40.09,38.17-40.09,27.37,0,35.5,12.72,35.5,46.6H876.3c.74,14.79,4.44,18.35,16,18.35,7.84,0,12.58-1.48,14.65-7.4Zm-19.68-24c-.89-14.2-6.51-16.72-16-16.72-12,0-15.09,4.15-15.83,16.72Z"/><path class="cls-1" d="M585.22,103.83l-5.34-4.77c3.81-25.37-.32-59-29.27-96a7.67,7.67,0,0,0-10.74-1.49A7.76,7.76,0,0,0,538.41,3c-28.91,37-33,70.69-29.27,96l-5.3,4.8a18.37,18.37,0,0,0-6.12,13.58v15.77a1.16,1.16,0,0,0,1,1.24,1.14,1.14,0,0,0,.6-.12l16.14-6.67a1.83,1.83,0,0,1,2.37,1,102.81,102.81,0,0,0,6.92,12.76l.42.67a4.3,4.3,0,0,0,3.62,2h31.38a4.3,4.3,0,0,0,3.6-2l.43-.68a101.52,101.52,0,0,0,6.92-12.77,1.84,1.84,0,0,1,2.38-1l16.14,6.68a1.15,1.15,0,0,0,1.5-.62,1,1,0,0,0,.08-.46V117.48A18.48,18.48,0,0,0,585.22,103.83ZM561,75.49,538.19,88.66a3.57,3.57,0,0,1-5.35-3.09V59.23a3.57,3.57,0,0,1,5.35-3.09L561,69.31A3.57,3.57,0,0,1,561,75.49Z"/></g></g></svg>