<svg fill="#B7B7B7" xmlns="http://www.w3.org/2000/svg" xmlns:xlink="http://www.w3.org/1999/xlink" version="1.0" x="0px" y="0px" viewBox="0 0 100 100" enable-background="new 0 0 100 100" xml:space="preserve"><path d="M81,55.144V44.857l-5.926-1.065c-0.628-2.549-1.633-4.942-2.955-7.131l3.438-4.944l-7.273-7.273l-4.944,3.438  c-2.19-1.322-4.583-2.326-7.132-2.955L55.142,19H44.855l-1.065,5.926c-2.547,0.629-4.942,1.633-7.128,2.955l-4.946-3.438  l-7.273,7.273l3.436,4.944c-1.321,2.188-2.325,4.582-2.954,7.131L19,44.857v10.286l5.925,1.066c0.629,2.548,1.633,4.942,2.954,7.13  l-3.436,4.944l7.273,7.273l4.946-3.438c2.186,1.323,4.581,2.327,7.128,2.955L44.855,81h10.287l1.065-5.925  c2.549-0.628,4.942-1.632,7.132-2.955l4.944,3.438l7.273-7.273l-3.438-4.944c1.322-2.188,2.327-4.582,2.955-7.13L81,55.144z   M66.87,50c0,9.317-7.553,16.872-16.869,16.872c-9.317,0-16.872-7.555-16.872-16.872S40.684,33.13,50,33.13  C59.316,33.13,66.87,40.683,66.87,50z"></path></svg>