<svg fill="#D94547" xmlns="http://www.w3.org/2000/svg" xmlns:xlink="http://www.w3.org/1999/xlink" version="1.1" x="0px" y="0px" viewBox="0 0 100 100" enable-background="new 0 0 100 100" xml:space="preserve"><g><path fill-rule="evenodd" clip-rule="evenodd" d="M78.969,34.989H68.222c-0.751,0-1.35,0.609-1.35,1.338v45.33H56.74v-45.33   c0-0.729-0.615-1.338-1.351-1.338H44.626c-0.735,0-1.35,0.609-1.35,1.338v45.33H33.145v-45.33c0-0.729-0.598-1.338-1.35-1.338   H21.03c-0.734,0-1.333,0.609-1.333,1.338v57.335c0,0.729,0.598,1.338,1.333,1.338h0.051h10.713h12.832H55.39h12.832h10.713h0.034   c0.752,0,1.351-0.609,1.351-1.338V36.327C80.319,35.598,79.721,34.989,78.969,34.989z"></path><path fill-rule="evenodd" clip-rule="evenodd" d="M85.65,18.242H63.454v-7.247V8.962V5.661C63.454,5.288,63.165,5,62.788,5h-25.56   c-0.376,0-0.666,0.288-0.666,0.661v3.302v2.032v7.247H14.35c-0.735,0-1.35,0.593-1.35,1.321V30.23c0,0.745,0.615,1.338,1.35,1.338   H85.65c0.752,0,1.35-0.593,1.35-1.338V19.563C87,18.834,86.402,18.242,85.65,18.242z M43.277,11.655h13.481v6.587H43.277V11.655z"></path></g></svg>